<?xml version="1.0" encoding="UTF-8" standalone="no"?>
<svg
   xmlns:dc="http://purl.org/dc/elements/1.1/"
   xmlns:cc="http://creativecommons.org/ns#"
   xmlns:rdf="http://www.w3.org/1999/02/22-rdf-syntax-ns#"
   xmlns:svg="http://www.w3.org/2000/svg"
   xmlns="http://www.w3.org/2000/svg"
   xmlns:sodipodi="http://sodipodi.sourceforge.net/DTD/sodipodi-0.dtd"
   xmlns:inkscape="http://www.inkscape.org/namespaces/inkscape"
   viewBox="0 0 400 300"
   version="1.1"
   id="svg4"
   sodipodi:docname="default.svg"
   width="400"
   height="300"
   inkscape:version="1.0.2 (1.0.2+r75+1)">
  <metadata
     id="metadata10">
    <rdf:RDF>
      <cc:Work
         rdf:about="">
        <dc:format>image/svg+xml</dc:format>
        <dc:type
           rdf:resource="http://purl.org/dc/dcmitype/StillImage" />
        <dc:title></dc:title>
      </cc:Work>
    </rdf:RDF>
  </metadata>
  <defs
     id="defs8" />
  <sodipodi:namedview
     inkscape:document-rotation="0"
     pagecolor="#ffffff"
     bordercolor="#666666"
     borderopacity="1"
     objecttolerance="10"
     gridtolerance="10"
     guidetolerance="10"
     inkscape:pageopacity="0"
     inkscape:pageshadow="2"
     inkscape:window-width="1366"
     inkscape:window-height="700"
     id="namedview6"
     showgrid="false"
     inkscape:zoom="0.65701287"
     inkscape:cx="22.253141"
     inkscape:cy="137.36688"
     inkscape:window-x="0"
     inkscape:window-y="32"
     inkscape:window-maximized="1"
     inkscape:current-layer="svg4" />
  <rect
     style="fill:#808080;stroke-width:2.68271"
     id="rect12"
     width="400"
     height="300"
     x="0"
     y="0"
     ry="0" />
  <path
     d="M 254.16666,200 H 145.83333 c -6.90365,0 -12.5,-5.59635 -12.5,-12.5 v -75 c 0,-6.90365 5.59635,-12.5 12.5,-12.5 h 108.33333 c 6.90365,0 12.5,5.59635 12.5,12.5 v 75 c 0,6.90365 -5.59635,12.5 -12.5,12.5 z M 162.5,114.58333 c -8.05417,0 -14.58334,6.52917 -14.58334,14.58334 0,8.05416 6.52917,14.58333 14.58334,14.58333 8.05416,0 14.58333,-6.52917 14.58333,-14.58333 0,-8.05417 -6.52917,-14.58334 -14.58333,-14.58334 z m -12.5,68.75 H 250 V 154.16667 L 227.20963,131.3763 c -1.22031,-1.22031 -3.19896,-1.22031 -4.41953,0 L 187.5,166.66667 173.04298,152.20964 c -1.22033,-1.22032 -3.19896,-1.22032 -4.41954,0 l -18.62343,18.62369 z"
     id="path8-3"
     style="stroke-width:0.260417;fill:#ffffff" />
</svg>
