<?xml version="1.0" encoding="UTF-8" standalone="no"?>
<svg
   xmlns:dc="http://purl.org/dc/elements/1.1/"
   xmlns:cc="http://creativecommons.org/ns#"
   xmlns:rdf="http://www.w3.org/1999/02/22-rdf-syntax-ns#"
   xmlns:svg="http://www.w3.org/2000/svg"
   xmlns="http://www.w3.org/2000/svg"
   xmlns:sodipodi="http://sodipodi.sourceforge.net/DTD/sodipodi-0.dtd"
   xmlns:inkscape="http://www.inkscape.org/namespaces/inkscape"
   viewBox="0 0 200 200"
   version="1.1"
   id="svg4"
   sodipodi:docname="user.svg"
   width="200"
   height="200"
   inkscape:version="1.0.1 (1.0.1+r73)">
  <metadata
     id="metadata10">
    <rdf:RDF>
      <cc:Work
         rdf:about="">
        <dc:format>image/svg+xml</dc:format>
        <dc:type
           rdf:resource="http://purl.org/dc/dcmitype/StillImage" />
        <dc:title></dc:title>
      </cc:Work>
    </rdf:RDF>
  </metadata>
  <defs
     id="defs8" />
  <sodipodi:namedview
     inkscape:document-rotation="0"
     pagecolor="#ffffff"
     bordercolor="#666666"
     borderopacity="1"
     objecttolerance="10"
     gridtolerance="10"
     guidetolerance="10"
     inkscape:pageopacity="0"
     inkscape:pageshadow="2"
     inkscape:window-width="1366"
     inkscape:window-height="700"
     id="namedview6"
     showgrid="false"
     inkscape:zoom="2.0184659"
     inkscape:cx="124.39338"
     inkscape:cy="70.722273"
     inkscape:window-x="0"
     inkscape:window-y="32"
     inkscape:window-maximized="1"
     inkscape:current-layer="svg4" />
  <rect
     style="fill:#808080;stroke-width:1.54886"
     id="rect12"
     width="200"
     height="200"
     x="0"
     y="0"
     ry="0" />
  <path
     style="fill:#ffffff;stroke-width:0.234376"
     d="m 100,100 c 16.57032,0 30,-13.42968 30,-30 0,-16.57032 -13.42968,-30 -30,-30 -16.57032,0 -30,13.42968 -30,30 0,16.57032 13.42968,30 30,30 z m 21,7.5 h -3.91406 c -5.20313,2.39062 -10.99219,3.75 -17.08594,3.75 -6.093754,0 -11.859378,-1.35938 -17.085942,-3.75 H 79 c -17.390622,0 -31.5,14.10938 -31.5,31.5 v 9.75 c 0,6.21094 5.039058,11.25 11.25,11.25 h 82.5 c 6.21094,0 11.25,-5.03906 11.25,-11.25 V 139 c 0,-17.39062 -14.10938,-31.5 -31.5,-31.5 z"
     id="path8" />
</svg>
