<?xml version="1.0" encoding="UTF-8" standalone="no"?>
<svg
   viewBox="0 0 160 160"
   version="1.1"
   id="svg4"
   sodipodi:docname="default-user.svg"
   width="160"
   height="160"
   inkscape:version="1.2.1 (9c6d41e410, 2022-07-14)"
   xmlns:inkscape="http://www.inkscape.org/namespaces/inkscape"
   xmlns:sodipodi="http://sodipodi.sourceforge.net/DTD/sodipodi-0.dtd"
   xmlns="http://www.w3.org/2000/svg"
   xmlns:svg="http://www.w3.org/2000/svg"
   xmlns:rdf="http://www.w3.org/1999/02/22-rdf-syntax-ns#"
   xmlns:cc="http://creativecommons.org/ns#"
   xmlns:dc="http://purl.org/dc/elements/1.1/">
  <metadata
     id="metadata10">
    <rdf:RDF>
      <cc:Work
         rdf:about="">
        <dc:format>image/svg+xml</dc:format>
        <dc:type
           rdf:resource="http://purl.org/dc/dcmitype/StillImage" />
      </cc:Work>
    </rdf:RDF>
  </metadata>
  <defs
     id="defs8" />
  <sodipodi:namedview
     inkscape:document-rotation="0"
     pagecolor="#ffffff"
     bordercolor="#666666"
     borderopacity="1"
     objecttolerance="10"
     gridtolerance="10"
     guidetolerance="10"
     inkscape:pageopacity="0"
     inkscape:pageshadow="2"
     inkscape:window-width="1920"
     inkscape:window-height="995"
     id="namedview6"
     showgrid="false"
     inkscape:zoom="2.0184659"
     inkscape:cx="124.84729"
     inkscape:cy="71.093596"
     inkscape:window-x="-9"
     inkscape:window-y="-9"
     inkscape:window-maximized="1"
     inkscape:current-layer="svg4"
     inkscape:showpageshadow="2"
     inkscape:pagecheckerboard="0"
     inkscape:deskcolor="#d1d1d1" />
  <rect
     style="fill:#808080;stroke-width:1.23909"
     id="rect12"
     width="160"
     height="160"
     x="0"
     y="0"
     ry="0" />
  <path
     style="fill:#ffffff;stroke-width:0.187501"
     d="M 80,80 C 93.256256,80 104,69.256256 104,56 104,42.743744 93.256256,32 80,32 66.743744,32 56,42.743744 56,56 56,69.256256 66.743744,80 80,80 Z m 16.8,6 H 93.668752 C 89.506248,87.912496 84.875,89 80,89 75.124997,89 70.512498,87.912496 66.331246,86 H 63.2 C 49.287502,86 38,97.287504 38,111.2 v 7.8 c 0,4.96875 4.031246,9 9,9 h 66 c 4.96875,0 9,-4.03125 9,-9 v -7.8 C 122,97.287504 110.7125,86 96.8,86 Z"
     id="path8" />
</svg>
