<?xml version="1.0" encoding="UTF-8" standalone="no"?>
<svg
   viewBox="0 0 320 240"
   version="1.1"
   id="svg4"
   sodipodi:docname="default-img.svg"
   width="320"
   height="240"
   inkscape:version="1.2.1 (9c6d41e410, 2022-07-14)"
   xmlns:inkscape="http://www.inkscape.org/namespaces/inkscape"
   xmlns:sodipodi="http://sodipodi.sourceforge.net/DTD/sodipodi-0.dtd"
   xmlns="http://www.w3.org/2000/svg"
   xmlns:svg="http://www.w3.org/2000/svg"
   xmlns:rdf="http://www.w3.org/1999/02/22-rdf-syntax-ns#"
   xmlns:cc="http://creativecommons.org/ns#"
   xmlns:dc="http://purl.org/dc/elements/1.1/">
  <metadata
     id="metadata10">
    <rdf:RDF>
      <cc:Work
         rdf:about="">
        <dc:format>image/svg+xml</dc:format>
        <dc:type
           rdf:resource="http://purl.org/dc/dcmitype/StillImage" />
      </cc:Work>
    </rdf:RDF>
  </metadata>
  <defs
     id="defs8" />
  <sodipodi:namedview
     inkscape:document-rotation="0"
     pagecolor="#ffffff"
     bordercolor="#666666"
     borderopacity="1"
     objecttolerance="10"
     gridtolerance="10"
     guidetolerance="10"
     inkscape:pageopacity="0"
     inkscape:pageshadow="2"
     inkscape:window-width="1920"
     inkscape:window-height="995"
     id="namedview6"
     showgrid="false"
     inkscape:zoom="0.65701287"
     inkscape:cx="22.830603"
     inkscape:cy="137.74464"
     inkscape:window-x="-9"
     inkscape:window-y="-9"
     inkscape:window-maximized="1"
     inkscape:current-layer="svg4"
     inkscape:showpageshadow="2"
     inkscape:pagecheckerboard="0"
     inkscape:deskcolor="#d1d1d1" />
  <rect
     style="fill:#808080;stroke-width:2.14617"
     id="rect12"
     width="320"
     height="240"
     x="0"
     y="0"
     ry="0" />
  <path
     d="m 203.33333,160 h -86.66667 c -5.52292,0 -10,-4.47708 -10,-10 V 90 c 0,-5.52292 4.47708,-10 10,-10 h 86.66667 c 5.52292,0 10,4.47708 10,10 v 60 c 0,5.52292 -4.47708,10 -10,10 z M 130,91.666664 c -6.44334,0 -11.66667,5.223336 -11.66667,11.666676 0,6.44332 5.22333,11.66666 11.66667,11.66666 6.44333,0 11.66666,-5.22334 11.66666,-11.66666 0,-6.44334 -5.22333,-11.666676 -11.66666,-11.666676 z m -10,54.999996 h 80 v -23.33332 l -18.2323,-18.2323 c -0.97624,-0.97625 -2.55916,-0.97625 -3.53562,0 L 150,133.33334 138.43438,121.76771 c -0.97626,-0.97625 -2.55916,-0.97625 -3.53563,0 l -14.89874,14.89895 z"
     id="path8-3"
     style="fill:#ffffff;stroke-width:0.208334" />
</svg>
