<?xml version="1.0" encoding="UTF-8" standalone="no"?>
<!-- Created with Inkscape (http://www.inkscape.org/) -->

<svg
   width="320"
   height="300"
   viewBox="0 0 84.666662 79.375"
   version="1.1"
   id="svg5"
   xml:space="preserve"
   inkscape:version="1.2.1 (9c6d41e410, 2022-07-14)"
   sodipodi:docname="drawing.svg"
   xmlns:inkscape="http://www.inkscape.org/namespaces/inkscape"
   xmlns:sodipodi="http://sodipodi.sourceforge.net/DTD/sodipodi-0.dtd"
   xmlns="http://www.w3.org/2000/svg"
   xmlns:svg="http://www.w3.org/2000/svg"><sodipodi:namedview
     id="namedview7"
     pagecolor="#ffffff"
     bordercolor="#000000"
     borderopacity="0.25"
     inkscape:showpageshadow="2"
     inkscape:pageopacity="0.0"
     inkscape:pagecheckerboard="0"
     inkscape:deskcolor="#d1d1d1"
     inkscape:document-units="px"
     showgrid="false"
     inkscape:zoom="0.72871775"
     inkscape:cx="387.66724"
     inkscape:cy="474.8066"
     inkscape:window-width="1920"
     inkscape:window-height="991"
     inkscape:window-x="-9"
     inkscape:window-y="-9"
     inkscape:window-maximized="1"
     inkscape:current-layer="layer1" /><defs
     id="defs2" /><g
     inkscape:label="Layer 1"
     inkscape:groupmode="layer"
     id="layer1"><path
       id="path255"
       style="fill:#292620;fill-opacity:0.2;stroke:none;stroke-width:0.414794"
       d="m 19.627281,79.374998 3.733166,-11.614295 c -1.842105,-1.663959 -3.324591,-2.819498 -3.733166,-5.392349 l 4.562759,2.488777 -1.659184,-4.562758 c 5.995043,-0.45607 0.771105,-6.292924 0.829591,-2.903578 -4.328385,-0.999085 -3.318369,-6.543829 -3.318369,-9.955107 h 0.414796 l 1.244389,5.392359 2.073981,-2.073982 2.903573,2.903565 -1.659185,-8.710718 c -3.716155,0.547607 -4.965111,-2.650394 -5.392351,-5.807136 l 3.318371,4.977553 h 0.414795 v -2.488777 c 2.731018,0.304203 4.215575,1.997104 4.977553,4.562748 h 0.414798 v -5.392345 c 5.981686,-3.403818 -1.550018,-11.900664 -5.084493,-7.701271 -2.044115,2.428213 1.725474,5.388768 3.425308,2.308927 3.831882,2.119998 -0.733363,4.915048 -3.318369,4.977553 l 1.244388,-2.073985 C 19.66047,37.906175 19.991058,32.394776 20.042078,28.35507 l 11.614293,5.807153 -2.073982,-4.977554 c 5.638983,-2.631474 5.557482,-10.121037 7.051536,-15.347466 -1.987288,0.358788 -3.498766,1.159774 -4.562759,2.903583 l -2.073979,-4.562771 h -0.414798 c -0.691878,1.482482 -0.817725,3.531245 -1.669715,4.853613 -0.950711,1.475413 -3.118263,1.704487 -3.118263,3.850621 0,3.35114 4.136334,2.696438 4.373183,-0.408298 3.812264,2.026671 2.740803,5.785987 -0.829594,7.46633 l -0.82959,-2.903585 c -0.64335,0.700995 -1.247469,1.621835 -2.11854,2.057776 -6.540915,3.276484 -8.418104,-14.749293 -1.614626,-12.842469 -2.598281,1.882759 0.795089,4.541445 2.595717,2.356714 1.739239,-2.110464 -0.294845,-4.674071 -2.595717,-4.919219 -2.218328,-0.236021 -3.615778,1.173763 -4.562757,2.977298 H 18.79769 c -1.040727,-1.957425 -2.628181,-3.207872 -4.975941,-2.807168 -2.120422,0.362112 -3.741334,2.847676 -2.182535,4.749089 1.793156,2.187224 5.196488,-0.472293 2.595711,-2.356714 5.262934,-1.475019 4.889535,8.978933 2.682411,11.56892 -1.923002,2.256503 -4.602508,2.014805 -5.585979,-0.784227 L 9.6721771,27.940281 C 6.6142983,26.480203 4.711634,21.598456 9.2573714,20.88874 8.6973923,26.663126 17.826227,18.867836 10.086968,17.985172 L 8.4277916,12.178015 H 8.0129831 L 6.3538042,16.740786 0.96145961,13.837203 C 3.7028446,19.069433 2.517356,26.116425 8.4277916,29.184669 L 6.3538042,33.747414 18.382898,27.940281 c 0,4.033871 0.242636,9.787108 -4.977556,10.369898 l 0.829583,2.073985 c -2.760871,-0.06678 -6.7313159,-2.919353 -2.903568,-4.977553 0.866503,2.610716 4.423956,1.347042 3.761525,-1.2363 -1.027445,-4.006093 -6.6110999,-1.354568 -7.6016247,1.237915 -0.9345407,2.44687 0.8452112,3.947066 1.5959826,6.044522 0.5151896,1.438303 0.2228211,3.217695 0.5849372,4.738552 h 0.4147909 c 0.637536,-2.441917 2.046206,-4.054912 4.562765,-4.562748 l 0.414789,2.488777 3.318376,-4.562762 c -0.156462,3.372178 -1.757917,5.878185 -5.392362,5.392345 l -1.244388,9.125524 2.903585,-3.318371 1.65918,1.659177 1.244388,-4.562745 h 0.414792 c 0.774425,3.252935 1.190872,8.595174 -2.903571,9.540298 0.05848,-3.389346 -5.1654466,2.447508 0.8296,2.903578 l -1.659197,4.562758 4.562765,-2.903574 c -0.138589,2.564104 -1.217018,3.992696 -3.318374,5.392351 v 0.829591 l 1.659194,0.414797 c -1.334394,3.569228 -0.04265,7.981268 2.488771,10.784702 z M 37.879123,11.76323 C 37.781892,9.7149699 38.10735,7.5634042 37.742213,5.5412849 36.635578,-0.58774662 28.041403,-0.65601741 23.361263,0.74600349 21.93644,1.1728264 20.291352,2.5645469 18.798507,2.4708149 17.391925,2.3823938 16.006517,1.1632409 14.650537,0.74761895 10.159135,-0.62991997 1.7454865,-0.58940497 0.35384311,5.1264779 -0.17004711,7.2792559 0.2919984,9.5760051 0.13268321,11.76323 L 1.3770687,9.6892441 C 3.1063419,10.314754 8.3761514,10.402524 6.9152444,6.9655147 6.1441412,5.1516175 4.2694429,6.4007278 3.8658482,7.6152488 1.9606907,5.7262615 3.3182866,3.8137788 5.5266433,2.8920981 8.733424,1.5535445 21.176525,2.1582103 15.480134,7.6152488 15.187282,3.857203 11.1694,5.7176482 12.652709,8.3897617 c 1.277987,2.3021213 4.484534,1.2418336 6.145798,3.3734683 h 0.414789 c 1.645911,-2.0603045 4.84333,-1.132362 6.145788,-3.4066923 1.494924,-2.6094754 -2.533743,-4.5130232 -2.827419,-0.7412889 -5.727099,-5.4719779 6.658724,-6.2210052 9.953488,-4.7571896 2.180956,0.9693937 3.581062,2.8528484 1.660805,4.7571896 -0.395507,-1.1912971 -2.292917,-2.5358836 -3.05021,-0.6983407 -1.401595,3.4021559 3.789751,3.2904179 5.538987,2.772336 z" /><path
       id="path852"
       style="fill:#292620;fill-opacity:0.2;stroke:none;stroke-width:0.27653"
       d="m 50.941628,52.916666 2.488778,-7.742864 c -1.22807,-1.109306 -2.216394,-1.879665 -2.488778,-3.594899 l 3.04184,1.659184 -1.106123,-3.041837 c 3.996695,-0.304048 0.51407,-4.195284 0.553061,-1.93572 -2.88559,-0.666057 -2.212246,-4.362552 -2.212246,-6.636738 h 0.27653 l 0.829594,3.594906 1.382653,-1.382654 1.935715,1.93571 -1.106123,-5.807145 c -2.477437,0.36507 -3.310073,-1.76693 -3.594901,-3.871425 l 2.212248,3.318369 h 0.27653 v -1.659185 c 1.820678,0.202802 2.810383,1.331403 3.318369,3.041832 h 0.276532 v -3.594896 c 3.98779,-2.269212 -1.033347,-7.933776 -3.389663,-5.134182 -1.362744,1.61881 1.150316,3.592513 2.28354,1.539286 2.554587,1.413332 -0.488909,3.276698 -2.212247,3.318368 l 0.829592,-1.382657 C 50.963754,25.270784 51.184147,21.596518 51.21816,18.903381 l 7.742861,3.871434 -1.382654,-3.318369 c 3.759322,-1.754316 3.704988,-6.747358 4.701024,-10.2316439 -1.324859,0.2391915 -2.33251,0.7731825 -3.041839,1.9357219 L 57.854899,8.1186765 h -0.276532 c -0.461252,0.9883216 -0.54515,2.3541635 -1.113143,3.2357425 -0.633808,0.983608 -2.078842,1.136324 -2.078842,2.567081 0,2.234093 2.757555,1.797625 2.915455,-0.272199 2.541509,1.351114 1.827202,3.857325 -0.553062,4.977553 l -0.55306,-1.935724 c -0.428901,0.467331 -0.831647,1.081224 -1.41236,1.371852 -4.360611,2.184323 -5.61207,-9.8328631 -1.076418,-8.5616464 -1.732187,1.2551724 0.530059,3.0276304 1.730478,1.5711424 C 56.596908,9.6655016 55.240852,7.9564309 53.706937,7.7929981 52.228052,7.6356509 51.296419,8.5755069 50.665099,9.7778636 H 50.388568 C 49.69475,8.4729141 48.636447,7.6392821 47.071273,7.9064181 c -1.413614,0.241408 -2.494222,1.8984515 -1.455023,3.1660599 1.195438,1.458149 3.464326,-0.314862 1.730474,-1.5711424 3.508623,-0.9833463 3.25969,5.9859544 1.788275,7.7126134 -1.282003,1.504335 -3.068339,1.343203 -3.723987,-0.522819 l -1.10612,1.935724 c -2.038586,-0.973385 -3.307028,-4.227884 -0.276536,-4.701028 -0.37332,3.849592 5.712569,-1.347268 0.553064,-1.935711 L 43.475302,8.1186765 h -0.276538 l -1.10612,3.0418475 -3.594896,-1.9357219 c 1.827589,3.4881529 1.037264,8.1861479 4.977554,10.2316439 l -1.382658,3.041831 8.019396,-3.871423 c 0,2.689248 0.161757,6.524739 -3.318371,6.913265 l 0.553055,1.382657 c -1.84058,-0.04452 -4.487544,-1.946235 -1.935712,-3.318368 0.577669,1.740477 2.949304,0.898028 2.507684,-0.8242 -0.684964,-2.670729 -4.4074,-0.903046 -5.06775,0.825277 -0.623027,1.631245 0.563474,2.631377 1.063988,4.029681 0.34346,0.958868 0.148548,2.145129 0.389958,3.159034 h 0.276528 c 0.425024,-1.627945 1.364136,-2.703274 3.041843,-3.041832 l 0.276525,1.659185 2.212252,-3.041842 c -0.104308,2.248119 -1.171945,3.918791 -3.594908,3.594898 l -0.829592,6.083681 1.935723,-2.212246 1.10612,1.106118 0.829592,-3.04183 h 0.276528 c 0.516283,2.168623 0.793915,5.730116 -1.935715,6.360198 0.03899,-2.259564 -3.44363,1.631672 0.553068,1.93572 l -1.106132,3.041837 3.041844,-1.935715 c -0.09239,1.709402 -0.811346,2.661797 -2.21225,3.594901 v 0.55306 l 1.10613,0.276531 c -0.889596,2.379486 -0.02843,5.320846 1.65918,7.189802 z M 63.109524,7.8421533 C 63.044702,6.4766464 63.261675,5.0422695 63.01825,3.69419 62.280492,-0.3918311 56.551043,-0.43734495 53.43095,0.49733569 52.481068,0.78188419 51.384342,1.7096979 50.389112,1.6472099 49.451392,1.5882625 48.527785,0.77549389 47.623799,0.49841259 44.629531,-0.41994666 39.020432,-0.39293666 38.09267,3.4176519 37.74341,4.8528373 38.05144,6.3840038 37.94523,7.8421533 l 0.82959,-1.3826568 c 1.152849,0.4170059 4.666056,0.4755192 3.692118,-1.81582 -0.51407,-1.2092648 -1.763869,-0.3765246 -2.032932,0.433156 -1.270105,-1.2593248 -0.365041,-2.5343133 1.107197,-3.1487671 2.137854,-0.892369 10.433255,-0.4892585 6.635661,3.1487671 -0.195236,-2.5053639 -2.873824,-1.265067 -1.88495,0.516342 0.851991,1.5347473 2.989689,0.8278892 4.097198,2.2489788 h 0.276527 C 51.762913,6.468617 53.894525,7.087245 54.76283,5.5710251 55.759446,3.8313749 53.073668,2.562343 52.877884,5.0768325 c -3.818065,-3.6479852 4.43915,-4.14733681 6.635659,-3.1714597 1.453971,0.6462625 2.387374,1.9018989 1.107203,3.1714597 -0.26367,-0.794198 -1.52861,-1.690589 -2.033473,-0.4655604 -0.934397,2.2681036 2.526501,2.1936116 3.692659,1.8482244 z" /><path
       id="path854"
       style="fill:#292620;fill-opacity:0.2;stroke:none;stroke-width:0.0967853"
       d="m 80.302874,18.520833 0.87108,-2.710002 c -0.42982,-0.388257 -0.77574,-0.657883 -0.87108,-1.258215 l 1.06465,0.580715 -0.38714,-1.064644 c 1.39884,-0.106416 0.17992,-1.468349 0.19357,-0.677502 -1.00996,-0.23312 -0.77429,-1.526893 -0.77429,-2.322858 h 0.0968 l 0.29035,1.258217 0.48393,-0.483929 0.67751,0.677498 -0.38715,-2.0325 c -0.8671,0.127775 -1.15852,-0.6184258 -1.25822,-1.3549987 l 0.77429,1.1614287 h 0.0968 V 9.7133292 c 0.63723,0.07098 0.98363,0.4659908 1.16143,1.0646408 h 0.0968 V 9.5197563 c 1.39572,-0.7942243 -0.36168,-2.7768215 -1.18639,-1.7969639 -0.47696,0.5665836 0.40261,1.2573797 0.79924,0.5387502 0.89411,0.4946663 -0.17112,1.1468445 -0.77429,1.161429 l 0.29036,-0.4839299 c -1.2505,-0.094268 -1.17337,-1.3802606 -1.16146,-2.3228585 l 2.71,1.3550021 -0.48393,-1.1614295 c 1.31577,-0.6140106 1.29675,-2.3615755 1.64537,-3.5810752 -0.46371,0.083717 -0.81639,0.270614 -1.06465,0.6775025 l -0.48393,-1.0646463 h -0.0968 c -0.16143,0.3459124 -0.19079,0.823957 -0.38959,1.1325097 -0.22184,0.3442633 -0.7276,0.3977133 -0.7276,0.898478 0,0.7819327 0.96514,0.6291689 1.02041,-0.09527 0.88953,0.4728899 0.63952,1.3500641 -0.19357,1.7421436 l -0.19357,-0.6775032 c -0.15012,0.1635656 -0.29108,0.3784283 -0.49433,0.4801479 -1.52621,0.7645134 -1.96422,-3.4415015 -0.37675,-2.9965759 -0.60626,0.4393103 0.18552,1.0596701 0.60567,0.5498999 0.40582,-0.4924417 -0.0688,-1.0906165 -0.60567,-1.1478178 -0.5176,-0.055071 -0.84368,0.273878 -1.06464,0.6947029 h -0.0968 c -0.24284,-0.4567325 -0.61325,-0.7485035 -1.16106,-0.6550059 -0.49476,0.084493 -0.87297,0.6644577 -0.50926,1.1081208 0.41841,0.510352 1.21252,-0.1102017 0.60567,-0.5498999 1.22802,-0.3441711 1.14089,2.0950841 0.6259,2.6994143 -0.4487,0.5265174 -1.07392,0.4701213 -1.3034,-0.1829863 l -0.38714,0.6775032 c -0.71351,-0.3406843 -1.15746,-1.4797592 -0.0968,-1.6453596 -0.13066,1.3473568 1.9994,-0.4715443 0.19357,-0.6774985 l -0.38714,-1.3550036 h -0.0968 l -0.38714,1.0646463 -1.25821,-0.6775025 c 0.63965,1.2208534 0.36304,2.8651516 1.74214,3.5810752 l -0.48393,1.0646409 2.80679,-1.3549982 c 0,0.941237 0.0566,2.2836589 -1.16143,2.4196432 l 0.19357,0.4839299 c -0.6442,-0.015578 -1.57064,-0.6811825 -0.6775,-1.161429 0.20219,0.6091671 1.03226,0.3143099 0.87769,-0.2884699 -0.23973,-0.934755 -1.54259,-0.3160666 -1.77371,0.2888468 -0.21806,0.5709361 0.19722,0.9209819 0.3724,1.4103881 0.1202,0.3356038 0.052,0.7507958 0.13648,1.1056628 h 0.0968 c 0.14877,-0.569781 0.47745,-0.9461468 1.06465,-1.0646418 l 0.0968,0.5807148 0.77429,-1.0646444 c -0.0365,0.7868414 -0.41018,1.3715764 -1.25822,1.2582134 l -0.29036,2.129289 0.67751,-0.774286 0.38714,0.387141 0.29036,-1.06464 h 0.0968 c 0.1807,0.759018 0.27787,2.00554 -0.6775,2.226069 0.0136,-0.790847 -1.20527,0.571086 0.19357,0.677502 l -0.38714,1.064644 1.06465,-0.677501 c -0.0324,0.598291 -0.28397,0.931629 -0.77429,1.258215 v 0.193572 l 0.38714,0.09678 c -0.31136,0.832821 -0.01,1.862296 0.58071,2.516431 z m 4.25877,-15.7760795 c -0.0227,-0.4779272 0.0532,-0.9799593 -0.032,-1.4517871 -0.25822,-1.43010734 -2.26352,-1.44603719 -3.35556,-1.118899 -0.33245,0.099592 -0.71631,0.42432679 -1.06464,0.40245598 -0.3282,-0.0206316 -0.65146,-0.30510059 -0.96786,-0.40207904 -1.04799,-0.32142572 -3.01118,-0.31197222 -3.33589,1.02173376 -0.12224,0.5023149 -0.0144,1.0382231 -0.0516,1.5485754 l 0.29036,-0.4839299 c 0.4035,0.1459522 1.63312,0.166432 1.29224,-0.6355369 -0.17992,-0.4232427 -0.61735,-0.1317836 -0.71153,0.1516046 -0.44453,-0.4407637 -0.12776,-0.88700966 0.38752,-1.10206846 0.74825,-0.31232914 3.65164,-0.17124053 2.32248,1.10206846 -0.0683,-0.87687726 -1.00583,-0.4427734 -0.65973,0.1807197 0.2982,0.5371618 1.04639,0.2897612 1.43402,0.7871425 h 0.0968 c 0.38405,-0.4807376 1.13011,-0.2642177 1.43402,-0.7948948 0.34882,-0.6088776 -0.5912,-1.05303866 -0.65973,-0.1729674 -1.33632,-1.27679484 1.5537,-1.45156787 2.32248,-1.11001086 0.50889,0.2261919 0.83558,0.66566456 0.38752,1.11001086 -0.0923,-0.2779693 -0.53501,-0.5917062 -0.71171,-0.1629461 -0.32704,0.7938363 0.88427,0.7677641 1.29243,0.6468784 z" /><path
       id="path856"
       style="fill:#292620;fill-opacity:0.2;stroke:none;stroke-width:0.138265"
       d="m 69.647701,26.458332 1.2444,-3.871431 c -0.61404,-0.554653 -1.1082,-0.939833 -1.2444,-1.797449 l 1.52093,0.829592 -0.55306,-1.52092 c 1.99835,-0.152022 0.25703,-2.097641 0.27653,-0.967859 -1.44279,-0.333029 -1.10613,-2.181277 -1.10613,-3.318369 h 0.13826 l 0.4148,1.797453 0.69133,-0.691327 0.96787,0.967855 -0.55307,-2.903573 c -1.23872,0.182535 -1.65504,-0.883464 -1.79746,-1.935712 l 1.10612,1.659185 h 0.13828 v -0.829592 c 0.91033,0.1014 1.40518,0.6657 1.65917,1.520915 h 0.13828 v -1.797448 c 1.99389,-1.134606 -0.51668,-3.9668877 -1.69484,-2.567092 -0.68136,0.809406 0.57517,1.796258 1.14177,0.769644 1.2773,0.706665 -0.24445,1.638349 -1.10612,1.659184 l 0.4148,-0.691329 c -1.78639,-0.134667 -1.6762,-1.9718 -1.65919,-3.3183677 l 3.87143,1.9357167 -0.69133,-1.6591857 c 1.87966,-0.877158 1.8525,-3.3736792 2.35052,-5.1158212 -0.66243,0.119596 -1.16627,0.3865914 -1.52092,0.9678607 l -0.69133,-1.5209233 h -0.13827 c -0.23062,0.4941604 -0.27256,1.1770813 -0.55657,1.6178711 -0.3169,0.4918043 -1.03942,0.5681618 -1.03942,1.2835398 0,1.1170467 1.37878,0.8988124 1.45773,-0.1360993 1.27076,0.6755568 0.91361,1.9286622 -0.27654,2.4887762 L 72.274751,8.345565 c -0.21445,0.2336643 -0.41581,0.5406113 -0.70619,0.6859253 -2.18029,1.0921617 -2.80602,-4.9164306 -0.5382,-4.2808225 -0.86609,0.6275861 0.26503,1.5138143 0.86524,0.7855712 0.57975,-0.7034881 -0.0983,-1.5580234 -0.86524,-1.6397397 -0.73944,-0.078673 -1.20527,0.3912543 -1.52092,0.9924327 h -0.13826 c -0.34691,-0.6524749 -0.87606,-1.0692906 -1.65865,-0.9357226 -0.7068,0.1207039 -1.24711,0.9492252 -0.72752,1.5830296 0.59772,0.7290747 1.73217,-0.1574309 0.86524,-0.7855712 1.75432,-0.491673 1.62985,2.9929774 0.89414,3.8563055 -0.641,0.752168 -1.53417,0.671602 -1.86199,-0.2614083 l -0.55306,0.9678613 c -1.0193,-0.486692 -1.65352,-2.1139413 -0.13827,-2.3505134 -0.18666,1.9247954 2.85628,-0.6736343 0.27654,-0.9678549 l -0.55306,-1.9357195 h -0.13827 l -0.55306,1.5209233 -1.797455,-0.9678607 c 0.913798,1.744076 0.518641,4.0930732 2.488785,5.1158212 l -0.69133,1.5209157 4.0097,-1.9357117 c 0,1.3446247 0.0809,3.2623707 -1.6592,3.4566327 l 0.27653,0.691329 c -0.92029,-0.02225 -2.24376,-0.973118 -0.96785,-1.659184 0.28883,0.870239 1.47465,0.449013 1.25385,-0.4121 -0.34248,-1.335364 -2.20371,-0.451524 -2.53388,0.412638 -0.31153,0.815624 0.28173,1.315688 0.53199,2.01484 0.17172,0.479435 0.0743,1.072566 0.19498,1.579518 h 0.13827 c 0.21251,-0.813972 0.68206,-1.351637 1.52092,-1.520915 l 0.13825,0.829592 1.10614,-1.520921 c -0.0521,1.124059 -0.58598,1.959395 -1.79746,1.797448 l -0.41481,3.041841 0.96788,-1.106123 0.55306,0.553058 0.41479,-1.520914 h 0.13827 c 0.25814,1.084311 0.39695,2.865058 -0.96787,3.180099 0.0195,-1.129782 -1.72182,0.815837 0.27654,0.967859 l -0.55307,1.52092 1.52093,-0.967857 c -0.0462,0.8547 -0.40567,1.330898 -1.10612,1.79745 v 0.276529 l 0.55305,0.138267 c -0.44479,1.189742 -0.0142,2.660422 0.82959,3.594899 z m 6.08395,-22.5372554 c -0.0324,-0.6827532 0.0761,-1.3999417 -0.0457,-2.0739817 -0.36888,-2.0430105 -3.2336,-2.0657674 -4.79365,-1.598427 -0.47493,0.1422742 -1.02331,0.606181 -1.52092,0.574937 -0.46886,-0.029474 -0.93067,-0.435858 -1.38266,-0.5743986 -1.49713,-0.4591797 -4.301677,-0.4456747 -4.765557,1.4596197 -0.17463,0.7175927 -0.02056,1.4831759 -0.07378,2.2122506 L 63.564193,3.2297482 C 64.140617,3.4382513 65.897221,3.4675083 65.410251,2.3218384 65.153211,1.7172059 64.52832,2.133576 64.393787,2.5384164 63.758742,1.9087539 64.21126,1.2712597 64.947385,0.9640327 c 1.068926,-0.4461845 5.216626,-0.2446293 3.317826,1.5743837 -0.0976,-1.252682 -1.43691,-0.6325336 -0.94247,0.2581709 0.42599,0.767374 1.49484,0.4139446 2.0486,1.1244893 h 0.13825 c 0.54865,-0.686768 1.61445,-0.3774538 2.04861,-1.135564 0.49831,-0.8698251 -0.84458,-1.5043411 -0.94248,-0.2470962 -1.90903,-1.8239928 2.21957,-2.0736686 3.31783,-1.5857299 0.72699,0.3231312 1.19369,0.9509494 0.55361,1.5857299 -0.13184,-0.397099 -0.76431,-0.8452946 -1.01674,-0.2327803 -0.46721,1.1340519 1.26325,1.096806 1.84633,0.9241121 z" /></g></svg>
