<?xml version="1.0" encoding="UTF-8" standalone="no"?>
<svg
   width="1000"
   height="1000"
   viewBox="0 0 264.58332 264.58335"
   version="1.1"
   id="svg8"
   inkscape:version="1.2 (1:1.2.1+202207142221+cd75a1ee6d)"
   sodipodi:docname="imz logo (navy bg).svg"
   inkscape:export-filename="imz logo (navy bg).png"
   inkscape:export-xdpi="96"
   inkscape:export-ydpi="96"
   xml:space="preserve"
   xmlns:inkscape="http://www.inkscape.org/namespaces/inkscape"
   xmlns:sodipodi="http://sodipodi.sourceforge.net/DTD/sodipodi-0.dtd"
   xmlns="http://www.w3.org/2000/svg"
   xmlns:svg="http://www.w3.org/2000/svg"
   xmlns:rdf="http://www.w3.org/1999/02/22-rdf-syntax-ns#"
   xmlns:cc="http://creativecommons.org/ns#"
   xmlns:dc="http://purl.org/dc/elements/1.1/"><defs
     id="defs2" /><sodipodi:namedview
     id="base"
     pagecolor="#ffffff"
     bordercolor="#666666"
     borderopacity="1.0"
     inkscape:pageopacity="0.0"
     inkscape:pageshadow="2"
     inkscape:zoom="0.563"
     inkscape:cx="500"
     inkscape:cy="500"
     inkscape:document-units="px"
     inkscape:current-layer="layer1"
     showgrid="false"
     units="px"
     inkscape:window-width="1366"
     inkscape:window-height="704"
     inkscape:window-x="0"
     inkscape:window-y="27"
     inkscape:window-maximized="1"
     inkscape:document-rotation="0"
     inkscape:showpageshadow="2"
     inkscape:pagecheckerboard="0"
     inkscape:deskcolor="#d1d1d1" /><metadata
     id="metadata5"><rdf:RDF><cc:Work
         rdf:about=""><dc:format>image/svg+xml</dc:format><dc:type
           rdf:resource="http://purl.org/dc/dcmitype/StillImage" /><dc:title /></cc:Work></rdf:RDF></metadata><g
     inkscape:label="Layer 1"
     inkscape:groupmode="layer"
     id="layer1"
     transform="translate(0,-32.416643)"><rect
       style="fill:#001f3f;fill-opacity:1;fill-rule:evenodd;stroke:none;stroke-width:0.72587;stroke-linejoin:bevel;stroke-miterlimit:5"
       id="rect289"
       width="264.58334"
       height="264.58334"
       x="-4.25293e-06"
       y="32.416637" /><g
       id="g823"><path
         style="color:#000000;fill:#ffcc00;fill-opacity:1;fill-rule:evenodd;stroke:none;stroke-width:0.982815;stroke-miterlimit:5;-inkscape-stroke:none"
         d="m 183.76285,111.79187 c -3.60166,0 -6.50141,2.89925 -6.50141,6.50089 0,3.60167 2.89975,6.50142 6.50141,6.50142 h 5.61723 1.78594 6.54172 l -17.524,65.3991 c -0.0291,0.10871 -0.0557,0.21833 -0.0791,0.32712 -0.0233,0.10877 -0.0438,0.21689 -0.0615,0.32556 -0.0177,0.10867 -0.0324,0.21716 -0.0444,0.32556 -0.0121,0.1084 -0.0213,0.21656 -0.0279,0.32453 -0.007,0.10797 -0.0107,0.21612 -0.0119,0.32349 -0.001,0.10737 4.9e-4,0.2143 0.005,0.32091 0.004,0.10661 0.0108,0.21265 0.0201,0.31833 0.009,0.10568 0.0212,0.21115 0.0357,0.31574 0.0144,0.1046 0.0312,0.20878 0.0506,0.31213 0.0194,0.10333 0.0418,0.20556 0.0661,0.30747 0.0244,0.10192 0.0509,0.20301 0.0801,0.30334 0.0292,0.10034 0.0606,0.2001 0.0946,0.29869 0.034,0.0986 0.0704,0.19634 0.10903,0.29301 0.0386,0.0967 0.0793,0.19221 0.12248,0.2868 0.0431,0.0946 0.0888,0.18826 0.13642,0.28061 0.0476,0.0924 0.0969,0.1834 0.14883,0.27336 0.0519,0.0899 0.10607,0.17876 0.16227,0.26614 0.0562,0.0874 0.11482,0.17321 0.17518,0.25786 0.0604,0.0846 0.12263,0.16786 0.18707,0.2496 0.0644,0.0818 0.13106,0.16211 0.19947,0.24081 0.0684,0.0787 0.13855,0.15554 0.21084,0.231 0.0723,0.0755 0.14664,0.14962 0.22272,0.22169 0.0761,0.0721 0.15381,0.14233 0.23358,0.21084 0.0798,0.0685 0.16159,0.13519 0.24495,0.19999 0.0834,0.0648 0.16842,0.12769 0.25528,0.18861 0.0869,0.0609 0.17534,0.11987 0.26562,0.17674 0.0903,0.0569 0.18237,0.11168 0.27595,0.16433 0.0936,0.0526 0.18846,0.10364 0.28525,0.15193 0.0968,0.0483 0.19515,0.0937 0.29507,0.13746 0.0999,0.0437 0.20144,0.0855 0.30438,0.12454 0.10295,0.039 0.2078,0.0754 0.31367,0.10955 0.10589,0.0342 0.21322,0.0665 0.32195,0.0956 0.10871,0.0291 0.21729,0.0547 0.32608,0.078 0.10878,0.0233 0.2174,0.0438 0.32607,0.0615 0.10867,0.0177 0.21716,0.0324 0.32557,0.0444 0.1084,0.0121 0.21707,0.0218 0.32504,0.0284 0.10797,0.007 0.21561,0.0102 0.32298,0.0114 0.10737,10e-4 0.21431,3.6e-4 0.32091,-0.004 0.10661,-0.004 0.21265,-0.0107 0.31833,-0.0201 0.10567,-0.009 0.21115,-0.0217 0.31574,-0.0362 0.10459,-0.0144 0.20828,-0.0317 0.31161,-0.0512 0.10333,-0.0195 0.20607,-0.0413 0.30799,-0.0656 0.10191,-0.0244 0.203,-0.0514 0.30334,-0.0806 0.10033,-0.0292 0.20011,-0.0606 0.29869,-0.0946 0.0986,-0.0339 0.19634,-0.0704 0.29301,-0.10904 0.0967,-0.0386 0.1922,-0.0793 0.2868,-0.12248 0.0946,-0.0431 0.18825,-0.0883 0.2806,-0.1359 0.0924,-0.0476 0.18341,-0.0974 0.27337,-0.14935 0.09,-0.0519 0.17875,-0.10607 0.26613,-0.16226 0.0874,-0.0562 0.17322,-0.11431 0.25787,-0.17467 0.0846,-0.0604 0.16785,-0.12315 0.2496,-0.18759 0.0817,-0.0644 0.16212,-0.13054 0.24081,-0.19895 0.0787,-0.0684 0.15605,-0.13907 0.23151,-0.21136 0.0755,-0.0723 0.1491,-0.14613 0.22118,-0.2222 0.0721,-0.0761 0.14232,-0.15433 0.21083,-0.2341 0.0685,-0.0798 0.13521,-0.16107 0.19999,-0.24443 0.0648,-0.0834 0.12771,-0.16841 0.18862,-0.25528 0.0609,-0.0869 0.11988,-0.17586 0.17674,-0.26613 0.0569,-0.0903 0.11167,-0.18186 0.16433,-0.27544 0.0527,-0.0936 0.10313,-0.18898 0.15141,-0.28577 0.0483,-0.0968 0.0942,-0.19515 0.13797,-0.29507 0.0437,-0.0999 0.0855,-0.20143 0.12454,-0.30438 0.039,-0.10294 0.0754,-0.20728 0.10956,-0.31316 0.0325,-0.10083 0.063,-0.20304 0.0909,-0.30644 l 18.50585,-69.06503 c 1.85755,-6.9325 -2.58155,-12.71757 -9.75858,-12.71757 h -10.3203 -1.78594 z"
         id="path123" /><path
         style="color:#000000;fill:#ffffff;fill-opacity:1;fill-rule:evenodd;stroke:none;stroke-width:0.982815;stroke-miterlimit:5;-inkscape-stroke:none"
         d="m 59.529607,111.79187 c -3.664329,0 -6.614583,2.94973 -6.614583,6.61406 v 46.3026 11.54504 21.52788 c 0,10.87898 8.964765,19.84375 19.84375,19.84375 10.878975,0 19.843754,-8.96476 19.843754,-19.84375 v -33.07292 -33.07291 c 0,-3.7789 2.83622,-6.61355 6.6151,-6.61355 3.778872,0 6.615612,2.83465 6.615612,6.61355 v 33.07291 33.07292 c 0,10.87897 8.96478,19.84375 19.84375,19.84375 10.87897,0 19.84375,-8.96477 19.84375,-19.84375 v -33.07292 -33.07291 c 0,-3.7789 2.83626,-6.61355 6.6151,-6.61355 3.7789,0 6.61562,2.83465 6.61562,6.61355 v 33.07291 33.07292 c 0,10.87894 8.96482,19.84375 19.84375,19.84375 h 6.50968 6.15518 13.79347 c 3.66434,0 6.61459,-2.95031 6.61459,-6.61458 0,-3.66434 -2.95025,-6.61407 -6.61459,-6.61407 h -13.79347 -6.15518 -6.50968 c -3.77886,0 -6.61562,-2.83622 -6.61562,-6.6151 v -33.07292 -33.07291 c 0,-10.87898 -8.96478,-19.84375 -19.84375,-19.84375 -10.87898,0 -19.84375,8.96478 -19.84375,19.84375 v 33.07291 h 5.2e-4 v 33.07292 c 0,3.7789 -2.83672,6.61355 -6.61562,6.61355 -3.77884,0 -6.6151,-2.83465 -6.6151,-6.61355 v -33.07292 h -5.1e-4 v -33.07291 c 0,-10.87898 -8.96479,-19.84375 -19.843752,-19.84375 -10.878977,0 -19.843754,8.96478 -19.843754,19.84375 v 33.07291 h 5.17e-4 v 33.07292 c 0,3.7789 -2.836737,6.61355 -6.615617,6.61355 -3.778884,0 -6.6151,-2.83465 -6.6151,-6.61355 v -21.52788 -11.54504 -46.3026 c 0,-3.66433 -2.949738,-6.61406 -6.614067,-6.61406 z"
         id="path2956" /></g></g></svg>
