<?xml version="1.0" encoding="UTF-8" standalone="no"?>
<svg
   viewBox="0 0 128 128"
   version="1.1"
   id="svg4"
   sodipodi:docname="logo.svg"
   inkscape:version="1.2.1 (9c6d41e410, 2022-07-14)"
   width="128"
   height="128"
   xmlns:inkscape="http://www.inkscape.org/namespaces/inkscape"
   xmlns:sodipodi="http://sodipodi.sourceforge.net/DTD/sodipodi-0.dtd"
   xmlns="http://www.w3.org/2000/svg"
   xmlns:svg="http://www.w3.org/2000/svg">
  <defs
     id="defs8" />
  <sodipodi:namedview
     id="namedview6"
     pagecolor="#ffffff"
     bordercolor="#000000"
     borderopacity="0.25"
     inkscape:showpageshadow="2"
     inkscape:pageopacity="0.0"
     inkscape:pagecheckerboard="0"
     inkscape:deskcolor="#d1d1d1"
     showgrid="false"
     inkscape:zoom="6.4453125"
     inkscape:cx="64.077576"
     inkscape:cy="64"
     inkscape:window-width="1920"
     inkscape:window-height="995"
     inkscape:window-x="-9"
     inkscape:window-y="-9"
     inkscape:window-maximized="1"
     inkscape:current-layer="svg4" />
  <!--! Font Awesome Free 6.1.1 by @fontawesome - https://fontawesome.com License - https://fontawesome.com/license/free (Icons: CC BY 4.0, Fonts: SIL OFL 1.1, Code: MIT License) Copyright 2022 Fonticons, Inc. -->
  <path
     d="m 126.1035,28.957847 a 1.4299952,1.4299952 0 0 0 -0.07,-0.169999 2.1299929,2.1299929 0 0 0 -0.1325,-0.312499 1.499995,1.499995 0 0 0 -0.13499,-0.1775 2.3399922,2.3399922 0 0 0 -0.18,-0.234999 c -0.0575,-0.055 -0.13,-0.1 -0.1925,-0.15 a 2.2099926,2.2099926 0 0 0 -0.225,-0.169999 L 101.10359,13.887897 a 1.9999933,1.9999933 0 0 0 -1.999991,0 L 75.033683,27.750351 v 0 a 2.0174933,2.0174933 0 0 0 -0.219999,0.172499 1.9199936,1.9199936 0 0 0 -0.195,0.15 2.0574931,2.0574931 0 0 0 -0.179999,0.232499 c -0.0425,0.06 -0.0975,0.1125 -0.135,0.1775 a 2.4249919,2.4249919 0 0 0 -0.129999,0.312499 c -0.02,0.0575 -0.0525,0.109999 -0.07,0.169999 a 2.0199933,2.0199933 0 0 0 -0.07,0.519998 V 55.795258 L 53.978753,67.342719 V 15.860391 a 1.9499935,1.9499935 0 0 0 -0.07,-0.522499 c -0.015,-0.06 -0.05,-0.112499 -0.07,-0.169999 a 2.087493,2.087493 0 0 0 -0.13,-0.309999 c -0.035,-0.065 -0.0925,-0.1175 -0.135,-0.179999 a 2.3399922,2.3399922 0 0 0 -0.179999,-0.235 2.3649921,2.3649921 0 0 0 -0.194999,-0.149999 2.4499918,2.4499918 0 0 0 -0.22,-0.17 v 0 L 28.906337,0.26794229 a 1.9999933,1.9999933 0 0 0 -1.999994,0 L 2.8389233,14.122896 v 0 a 1.6299946,1.6299946 0 0 0 -0.2199992,0.1725 1.9524935,1.9524935 0 0 0 -0.1974994,0.149999 2.0374932,2.0374932 0 0 0 -0.1774994,0.2325 c -0.045,0.0625 -0.1,0.114999 -0.1374995,0.179999 a 1.9699934,1.9699934 0 0 0 -0.1274996,0.309999 1.6149946,1.6149946 0 0 0 -0.0725,0.167499 2.0449932,2.0449932 0 0 0 -0.07,0.524999 v 82.424725 a 1.9999933,1.9999933 0 0 0 0.9999966,1.737504 l 48.1248392,27.70991 a 2.2074926,2.2074926 0 0 0 0.332499,0.135 c 0.0525,0.02 0.1025,0.05 0.1575,0.065 a 1.9799934,1.9799934 0 0 0 1.024996,0 c 0.05,-0.0125 0.0925,-0.04 0.137501,-0.055 a 2.1499928,2.1499928 0 0 0 0.349998,-0.145 l 48.139834,-27.70991 a 1.9999933,1.9999933 0 0 0 0.99999,-1.737504 V 71.970204 l 23.05993,-13.277456 a 1.9999933,1.9999933 0 0 0 0.99999,-1.749994 V 29.480345 a 2.1574928,2.1574928 0 0 0 -0.06,-0.522498 z M 27.90384,4.3204288 v 0 L 47.951273,15.857891 27.90134,27.402852 7.8564069,15.860391 Z M 49.966266,19.320379 v 50.329832 l -11.632461,6.697478 -8.422472,4.849984 V 30.875341 l 11.632462,-6.697478 z m 0,103.194661 L 5.8464129,97.12512 V 19.330379 l 8.4224721,4.844984 11.629962,6.699978 v 53.79482 a 1.7349942,1.7349942 0 0 0 0.03,0.225 1.9999933,1.9999933 0 0 0 0.04,0.294999 v 0 a 1.4799951,1.4799951 0 0 0 0.095,0.224999 1.5949947,1.5949947 0 0 0 0.105,0.249999 v 0 a 2.1349929,2.1349929 0 0 0 0.149999,0.194999 1.9049937,1.9049937 0 0 0 0.165,0.21 v 0 c 0.0575,0.055 0.129999,0.095 0.192499,0.144999 a 2.2324926,2.2324926 0 0 0 0.214999,0.165 v 0 0 L 49.938767,99.425112 Z M 51.96626,95.972624 31.951326,84.642662 52.973756,72.540202 76.03868,59.262746 96.071109,70.795208 81.371162,79.18518 Z M 98.096109,97.11512 53.973753,122.52754 V 99.450112 L 86.653644,80.800174 98.096109,74.262696 Z m 0,-29.782401 -8.422475,-4.832484 -11.632461,-6.697477 V 32.947834 l 8.422472,4.849984 11.632464,6.702477 z M 100.09609,41.012807 80.046166,29.470345 100.09609,17.930384 120.14102,29.467845 Z m 1.99999,26.319912 V 44.500295 l 11.65747,-6.702477 8.41997,-4.849984 v 22.847424 0 z"
     id="path2"
     style="fill:#ff5555;stroke-width:0.249999" />
</svg>
