<?xml version="1.0" encoding="UTF-8" standalone="no"?>
<!-- Created with Inkscape (http://www.inkscape.org/) -->

<svg
   width="1000"
   height="350"
   viewBox="0 0 264.58333 92.604166"
   version="1.1"
   id="svg227"
   inkscape:version="1.2.1 (9c6d41e410, 2022-07-14)"
   sodipodi:docname="slideshow-3.svg"
   xml:space="preserve"
   xmlns:inkscape="http://www.inkscape.org/namespaces/inkscape"
   xmlns:sodipodi="http://sodipodi.sourceforge.net/DTD/sodipodi-0.dtd"
   xmlns="http://www.w3.org/2000/svg"
   xmlns:svg="http://www.w3.org/2000/svg"><sodipodi:namedview
     id="namedview229"
     pagecolor="#ffffff"
     bordercolor="#000000"
     borderopacity="0.25"
     inkscape:showpageshadow="2"
     inkscape:pageopacity="0.0"
     inkscape:pagecheckerboard="0"
     inkscape:deskcolor="#d1d1d1"
     inkscape:document-units="px"
     showgrid="false"
     inkscape:zoom="1.524"
     inkscape:cx="500"
     inkscape:cy="174.86877"
     inkscape:window-width="1920"
     inkscape:window-height="995"
     inkscape:window-x="-9"
     inkscape:window-y="-9"
     inkscape:window-maximized="1"
     inkscape:current-layer="layer1" /><defs
     id="defs224" /><g
     inkscape:label="Layer 1"
     inkscape:groupmode="layer"
     id="layer1"><rect
       style="fill:#808080;stroke-width:0.529167;fill-opacity:1"
       id="rect231"
       width="264.58334"
       height="92.604164"
       x="0"
       y="0" /><path
       d="m 143.75694,56.885416 h -22.93055 c -1.46128,0 -2.64584,-1.184561 -2.64584,-2.645834 V 38.364583 c 0,-1.461273 1.18456,-2.645833 2.64584,-2.645833 h 22.93055 c 1.46128,0 2.64584,1.18456 2.64584,2.645833 v 15.874999 c 0,1.461273 -1.18456,2.645834 -2.64584,2.645834 z M 124.35417,38.805554 c -1.7048,0 -3.08681,1.382008 -3.08681,3.086808 0,1.704795 1.38201,3.086804 3.08681,3.086804 1.70479,0 3.0868,-1.382009 3.0868,-3.086804 0,-1.7048 -1.38201,-3.086808 -3.0868,-3.086808 z m -2.64584,14.552082 H 142.875 v -6.173607 l -4.82396,-4.823963 c -0.2583,-0.258299 -0.67711,-0.258299 -0.93547,0 l -7.46974,7.469796 -3.06007,-3.060073 c -0.2583,-0.258299 -0.67711,-0.258299 -0.93547,0 l -3.94195,3.942014 z"
       id="path8-3"
       style="fill:#ffffff;stroke-width:0.0551217" /><g
       aria-label="3"
       id="text586"
       style="font-weight:300;font-size:7.05556px;font-family:'Roboto Condensed';-inkscape-font-specification:'Roboto Condensed,  Light';fill:#ffffff;stroke-width:0.529167"><path
         d="m 131.79558,69.230525 h 0.38929 q 0.37552,0 0.57878,-0.230822 0.20326,-0.230822 0.20326,-0.630453 0,-0.881945 -0.68213,-0.881945 -0.32729,0 -0.51332,0.237712 -0.18604,0.237712 -0.18604,0.623563 h -0.60633 q 0,-0.602893 0.36518,-0.992189 0.36862,-0.392741 0.94051,-0.392741 0.59256,0 0.94051,0.372071 0.34796,0.368625 0.34796,1.04731 0,0.347954 -0.18259,0.651123 -0.17915,0.299724 -0.46854,0.440973 0.70969,0.261827 0.70969,1.174778 0,0.671794 -0.37551,1.071425 -0.37207,0.396186 -0.97497,0.396186 -0.596,0 -0.96462,-0.375515 -0.36518,-0.378961 -0.36518,-1.016304 h 0.60978 q 0,0.399631 0.19292,0.637343 0.19293,0.234267 0.5271,0.234267 0.34107,0 0.54088,-0.230822 0.20327,-0.230821 0.20327,-0.7028 0,-0.912951 -0.86472,-0.912951 h -0.36518 z"
         style="font-weight:normal;-inkscape-font-specification:'Roboto Condensed, '"
         id="path317" /></g></g></svg>
