<?xml version="1.0" encoding="UTF-8" standalone="no"?>
<!-- Created with Inkscape (http://www.inkscape.org/) -->

<svg
   width="1000"
   height="350"
   viewBox="0 0 264.58333 92.604166"
   version="1.1"
   id="svg227"
   inkscape:version="1.3.1 (9b9bdc1480, 2023-11-25, custom)"
   sodipodi:docname="default-carousel.svg"
   xml:space="preserve"
   xmlns:inkscape="http://www.inkscape.org/namespaces/inkscape"
   xmlns:sodipodi="http://sodipodi.sourceforge.net/DTD/sodipodi-0.dtd"
   xmlns="http://www.w3.org/2000/svg"
   xmlns:svg="http://www.w3.org/2000/svg"><sodipodi:namedview
     id="namedview229"
     pagecolor="#ffffff"
     bordercolor="#000000"
     borderopacity="0.25"
     inkscape:showpageshadow="2"
     inkscape:pageopacity="0.0"
     inkscape:pagecheckerboard="0"
     inkscape:deskcolor="#d1d1d1"
     inkscape:document-units="px"
     showgrid="false"
     inkscape:zoom="1.524"
     inkscape:cx="500.65617"
     inkscape:cy="122.04724"
     inkscape:window-width="1920"
     inkscape:window-height="1019"
     inkscape:window-x="0"
     inkscape:window-y="0"
     inkscape:window-maximized="1"
     inkscape:current-layer="layer1" /><defs
     id="defs224" /><g
     inkscape:label="Layer 1"
     inkscape:groupmode="layer"
     id="layer1"><rect
       style="fill:#868e96;stroke-width:0.529167;fill-opacity:1"
       id="rect231"
       width="264.58334"
       height="92.604164"
       x="0"
       y="0" /><path
       d="m 143.75694,56.885416 h -22.93055 c -1.46128,0 -2.64584,-1.184561 -2.64584,-2.645834 V 38.364583 c 0,-1.461273 1.18456,-2.645833 2.64584,-2.645833 h 22.93055 c 1.46128,0 2.64584,1.18456 2.64584,2.645833 v 15.874999 c 0,1.461273 -1.18456,2.645834 -2.64584,2.645834 z M 124.35417,38.805554 c -1.7048,0 -3.08681,1.382008 -3.08681,3.086808 0,1.704795 1.38201,3.086804 3.08681,3.086804 1.70479,0 3.0868,-1.382009 3.0868,-3.086804 0,-1.7048 -1.38201,-3.086808 -3.0868,-3.086808 z m -2.64584,14.552082 H 142.875 v -6.173607 l -4.82396,-4.823963 c -0.2583,-0.258299 -0.67711,-0.258299 -0.93547,0 l -7.46974,7.469796 -3.06007,-3.060073 c -0.2583,-0.258299 -0.67711,-0.258299 -0.93547,0 l -3.94195,3.942014 z"
       id="path8-3"
       style="fill:#ffffff;stroke-width:0.0551217" /></g></svg>
